<svg  viewBox="0 0 80 23" fill="none" xmlns="http://www.w3.org/2000/svg">
<path d="M21.422 15.774H26.602L26.364 14.192H21.66L21.422 15.774ZM23.984 11.378L25.454 14.78L25.426 15.284L26.686 18H28.954L23.984 7.626L19.014 18H21.268L22.556 15.2L22.514 14.752L23.984 11.378ZM30.5491 7.08V18H32.3691V7.08H30.5491ZM34.3125 11.56V13.086H38.3445V11.56H34.3125ZM38.1485 8.9L38.9185 7.542C38.8345 7.44867 38.7178 7.35067 38.5685 7.248C38.4285 7.14533 38.2558 7.06133 38.0505 6.996C37.8452 6.92133 37.5978 6.884 37.3085 6.884C36.8232 6.884 36.4125 6.97733 36.0765 7.164C35.7405 7.34133 35.4885 7.598 35.3205 7.934C35.1525 8.27 35.0685 8.68533 35.0685 9.18V18H36.8185V9.586C36.8185 9.34333 36.8465 9.14267 36.9025 8.984C36.9585 8.82533 37.0332 8.71333 37.1265 8.648C37.2292 8.57333 37.3505 8.536 37.4905 8.536C37.6025 8.536 37.7145 8.564 37.8265 8.62C37.9478 8.66667 38.0552 8.76 38.1485 8.9ZM40.0409 9.068C40.0409 9.35733 40.1482 9.6 40.3629 9.796C40.5776 9.992 40.8342 10.09 41.1329 10.09C41.4316 10.09 41.6836 9.992 41.8889 9.796C42.1036 9.6 42.2109 9.35733 42.2109 9.068C42.2109 8.76933 42.1036 8.52667 41.8889 8.34C41.6836 8.144 41.4316 8.046 41.1329 8.046C40.8342 8.046 40.5776 8.144 40.3629 8.34C40.1482 8.52667 40.0409 8.76933 40.0409 9.068ZM40.2369 11.56V18H42.0009V11.56H40.2369ZM47.6637 18.14C48.4384 18.14 49.101 17.9907 49.6517 17.692C50.2117 17.384 50.6597 16.9267 50.9957 16.32L49.4137 15.83C49.227 16.138 48.989 16.3713 48.6997 16.53C48.4197 16.6793 48.079 16.754 47.6777 16.754C47.323 16.754 47.0197 16.6747 46.7677 16.516C46.5157 16.3573 46.3244 16.1287 46.1937 15.83C46.0724 15.5313 46.0117 15.1673 46.0117 14.738C46.021 14.29 46.0864 13.9167 46.2077 13.618C46.3384 13.31 46.5204 13.0813 46.7537 12.932C46.9964 12.7733 47.295 12.694 47.6497 12.694C47.939 12.694 48.191 12.7593 48.4057 12.89C48.6204 13.0207 48.7837 13.198 48.8957 13.422C49.017 13.646 49.0777 13.9167 49.0777 14.234C49.0777 14.2993 49.059 14.3833 49.0217 14.486C48.9937 14.5793 48.961 14.654 48.9237 14.71L49.4137 14.066H45.2277V15.186H50.9957C51.005 15.13 51.0097 15.0553 51.0097 14.962C51.019 14.8687 51.0237 14.78 51.0237 14.696C51.0237 14.0053 50.893 13.4173 50.6317 12.932C50.3704 12.4373 49.9877 12.064 49.4837 11.812C48.989 11.5507 48.387 11.42 47.6777 11.42C46.9684 11.42 46.3524 11.56 45.8297 11.84C45.307 12.1107 44.901 12.498 44.6117 13.002C44.3317 13.4967 44.1917 14.0893 44.1917 14.78C44.1917 15.4613 44.3317 16.054 44.6117 16.558C44.901 17.0527 45.307 17.44 45.8297 17.72C46.3524 18 46.9637 18.14 47.6637 18.14Z" fill="black"/>
<path d="M54.2533 12.82H55.8353C56.4233 12.82 56.932 12.736 57.3613 12.568C57.8 12.4 58.1406 12.1527 58.3833 11.826C58.626 11.4993 58.7473 11.1073 58.7473 10.65C58.7473 10.09 58.626 9.63267 58.3833 9.278C58.1406 8.914 57.8 8.64333 57.3613 8.466C56.932 8.28867 56.4233 8.2 55.8353 8.2H53.3153V18H55.9753C56.61 18 57.1746 17.8973 57.6693 17.692C58.1733 17.4773 58.57 17.16 58.8593 16.74C59.158 16.3107 59.3073 15.774 59.3073 15.13C59.3073 14.682 59.2233 14.2947 59.0553 13.968C58.8873 13.6413 58.6493 13.3753 58.3413 13.17C58.0426 12.9553 57.6926 12.7967 57.2913 12.694C56.89 12.5913 56.4513 12.54 55.9753 12.54H54.2533V13.198H55.9753C56.2926 13.198 56.582 13.24 56.8433 13.324C57.1046 13.3987 57.3286 13.5153 57.5153 13.674C57.7113 13.8327 57.8606 14.0287 57.9633 14.262C58.066 14.4953 58.1173 14.7613 58.1173 15.06C58.1173 15.4613 58.024 15.802 57.8373 16.082C57.66 16.362 57.408 16.5767 57.0813 16.726C56.764 16.8753 56.3953 16.95 55.9753 16.95H54.5053V9.25H55.8353C56.33 9.25 56.7406 9.38067 57.0673 9.642C57.394 9.894 57.5573 10.2533 57.5573 10.72C57.5573 11.028 57.4826 11.2893 57.3333 11.504C57.184 11.7187 56.9786 11.882 56.7173 11.994C56.456 12.106 56.162 12.162 55.8353 12.162H54.2533V12.82ZM61.752 7.08V18H62.872V7.08H61.752ZM66.7985 15.48V11.56H65.6785V15.62C65.6785 16.3853 65.8792 16.9967 66.2805 17.454C66.6819 17.9113 67.2185 18.14 67.8905 18.14C68.3199 18.14 68.6932 18.0467 69.0105 17.86C69.3279 17.664 69.5939 17.3747 69.8085 16.992V18H70.9285V11.56H69.8085V15.48C69.8085 15.7973 69.7385 16.0773 69.5985 16.32C69.4679 16.5627 69.2765 16.754 69.0245 16.894C68.7819 17.0247 68.4972 17.09 68.1705 17.09C67.7225 17.09 67.3819 16.95 67.1485 16.67C66.9152 16.39 66.7985 15.9933 66.7985 15.48ZM76.226 18.14C76.9166 18.14 77.514 18.0047 78.018 17.734C78.5313 17.454 78.956 17.0433 79.292 16.502L78.382 15.928C78.1486 16.32 77.864 16.614 77.528 16.81C77.192 16.9967 76.8046 17.09 76.366 17.09C75.9273 17.09 75.554 16.9967 75.246 16.81C74.938 16.6233 74.7046 16.3527 74.546 15.998C74.3873 15.6433 74.308 15.214 74.308 14.71C74.3173 14.2153 74.4013 13.8 74.56 13.464C74.728 13.1187 74.9613 12.8573 75.26 12.68C75.568 12.4933 75.9366 12.4 76.366 12.4C76.73 12.4 77.0473 12.4793 77.318 12.638C77.5886 12.7967 77.7986 13.016 77.948 13.296C78.1066 13.576 78.186 13.9073 78.186 14.29C78.186 14.3553 78.172 14.4393 78.144 14.542C78.116 14.6353 78.088 14.7053 78.06 14.752L78.508 14.108H73.888V15.06H79.39C79.39 15.0413 79.39 14.9993 79.39 14.934C79.3993 14.8593 79.404 14.7893 79.404 14.724C79.404 14.0427 79.2826 13.4547 79.04 12.96C78.7973 12.4653 78.4473 12.0873 77.99 11.826C77.542 11.5553 77.0006 11.42 76.366 11.42C75.7313 11.42 75.1713 11.56 74.686 11.84C74.21 12.12 73.8366 12.512 73.566 13.016C73.3046 13.52 73.174 14.108 73.174 14.78C73.174 15.4427 73.3 16.026 73.552 16.53C73.8133 17.034 74.1726 17.4307 74.63 17.72C75.0966 18 75.6286 18.14 76.226 18.14Z" fill="#1976D2"/>
<path d="M16.9117 8.03214C16.3257 7.20377 15.9308 6.22537 15.1407 5.54861C14.5626 5.02982 13.5939 5.05202 13.0741 4.60364C12.6659 3.18265 12.5003 1.55939 11.3891 0.467212C10.9651 -0.137006 9.68889 -0.224685 9.51473 0.620063C9.49988 1.6649 8.16674 -0.684098 8.0056 0.652801C8.31656 1.83664 8.57871 3.17775 9.65285 3.92546C10.0363 4.38693 10.2696 4.93761 10.2749 5.53797C10.4068 6.33971 10.8579 7.62181 10.3954 8.13415C9.5142 8.75526 8.6238 7.97746 7.71043 7.95071C6.62873 8.05844 5.53472 8.18022 4.54531 8.66292C3.45125 9.08214 2.62804 9.98061 1.81041 10.786C0.891285 11.9867 0.124022 13.4001 1.33213e-07 14.9329C0.100134 16.0627 -0.123012 17.2229 0.131446 18.332C0.376077 18.7701 0.968126 19.1304 0.331627 19.445C0.18589 20.2228 1.68959 20.2617 2.29955 20.4102C3.26638 20.4908 4.27918 20.7695 5.27657 20.5652C5.99484 20.2426 6.19912 21.1373 7.01375 20.8918C8.12569 20.8504 9.2705 21.035 10.3568 20.7348C11.288 20.6805 12.1718 20.5063 13.1152 20.5689C13.7819 20.6686 15.023 20.0199 13.8452 19.5558C13.0567 19.352 11.9392 19.0353 11.925 18.0617C11.5728 16.8864 12.5854 15.9658 13.3408 15.1952C13.9862 14.3784 14.628 13.4903 14.9155 12.487C15.3588 11.8186 14.9824 10.312 15.4661 10.0725C16.0859 9.85273 16.3243 9.2487 16.9524 9.00926C17.066 8.68841 16.9448 8.35505 16.9117 8.03214Z" fill="#1E90FF"/>
<path d="M7.77408 19.1859C8.60384 19.247 9.4058 18.9277 10.2355 19.0563C10.518 18.8246 9.54022 18.0301 9.71733 17.4441C8.58736 16.7548 8.30999 18.2619 7.75969 18.9124L7.73113 19.0491L7.77408 19.1859Z" fill="white"/>
</svg>
