<svg width="16" height="20" viewBox="0 0 16 20" fill="none" xmlns="http://www.w3.org/2000/svg">
<path d="M0.0831123 7.55966C0.634655 6.78002 1.00628 5.85917 1.74997 5.22222C2.29398 4.73394 3.20575 4.75485 3.69492 4.33284C4.07916 2.99544 4.235 1.46766 5.2808 0.439729C5.67994 -0.128947 6.88104 -0.211468 7.04496 0.583589C7.05893 1.56696 8.31366 -0.643857 8.46532 0.614401C8.17265 1.72861 7.92592 2.99083 6.91497 3.69455C6.55405 4.12887 6.33447 4.64716 6.32947 5.21221C6.20532 5.96678 5.78083 7.17346 6.21612 7.65567C7.04546 8.24024 7.88348 7.50819 8.74313 7.48302C9.7612 7.58441 10.7908 7.69903 11.7221 8.15334C12.7518 8.54789 13.5265 9.39351 14.2961 10.1515C15.1611 11.2816 15.8833 12.6119 16 14.0545C15.9058 15.1179 16.1158 16.2098 15.8763 17.2536C15.646 17.666 15.0888 18.005 15.6879 18.3011C15.825 19.0332 14.4098 19.0698 13.8357 19.2096C12.9258 19.2854 11.9725 19.5478 11.0338 19.3555C10.3578 19.0518 10.1655 19.8939 9.39883 19.6629C8.35229 19.6239 7.27483 19.7976 6.25241 19.5151C5.37599 19.464 4.5442 19.3 3.65633 19.3589C3.02882 19.4528 1.86069 18.8423 2.96919 18.4055C3.71132 18.2137 4.76315 17.9156 4.77652 16.9992C5.10791 15.8931 4.1549 15.0267 3.44399 14.3013C2.8365 13.5326 2.23251 12.6967 1.96187 11.7525C1.54466 11.1234 1.89893 9.7054 1.44369 9.48C0.860336 9.27316 0.63598 8.70466 0.0447939 8.47931C-0.0621426 8.17732 0.0519207 7.86358 0.0831123 7.55966Z" fill="#1976D2"/>
<path d="M8.68356 18.0574C7.90262 18.1149 7.14782 17.8144 6.36691 17.9355C6.10108 17.7174 7.02131 16.9696 6.85463 16.4181C7.91813 15.7693 8.17918 17.1878 8.69711 17.8L8.72398 17.9287L8.68356 18.0574Z" fill="#1976D2"/>
</svg>
